<?xml version="1.0" encoding="UTF-8"?>
<svg id="Capa_1" xmlns="http://www.w3.org/2000/svg" version="1.1" xmlns:xlink="http://www.w3.org/1999/xlink" viewBox="0 0 692 649">
  <!-- Generator: Adobe Illustrator 29.0.0, SVG Export Plug-In . SVG Version: 2.1.0 Build 186)  -->
  <defs>
    <style>
      .st0 {
        mask: url(#mask-1);
      }

      .st1 {
        fill: #b9ff66;
      }

      .st2 {
        fill: #fff;
      }

      .st3 {
        mask: url(#mask);
      }

      .st4 {
        mask: url(#mask-2);
      }

      .st5 {
        fill: none;
        stroke: #000;
        stroke-miterlimit: 10;
        stroke-width: 2px;
      }

      .st6 {
        fill: #191a23;
      }
    </style>
    <mask id="mask" x="40.7" y="-.5" width="651" height="650" maskUnits="userSpaceOnUse">
      <g id="path-1-outside-1_341_618">
        <rect class="st2" x="40.7" y="-.5" width="651" height="650"/>
        <path d="M366.6,162.1L387.1.5l-.2,162.8L427.4,5.6l-20.4,161.6L467,15.7l-40.5,157.9L505,30.6l-60.2,151.5,95.9-131.9-78.7,142.9,111.6-118.8-95.8,131.7,125.6-103.8-111.7,118.7,137.7-87.2-125.8,103.8,147.6-69.4-137.7,87.2,155.1-50.4-147.6,69.4,160.2-30.6-155.1,50.4,162.8-10.4-160.2,30.5,162.8,10.2-162.8,10.2,160.2,30.5-162.8-10.2,155.1,50.2-160.2-30.5,147.6,69.4-155.1-50.4,137.7,87.2-147.6-69.4,125.8,103.8-137.7-87.4,111.7,118.8-125.6-104,95.8,131.9-111.6-118.8,78.7,142.7-95.9-131.9,60.2,151.5-78.5-142.7,40.5,157.7-60-151.5,20.4,161.7-40.5-157.9.2,163-20.4-161.7-20.4,161.7v-163l-40.5,157.9,20.6-161.7-60,151.5,40.5-157.7-78.5,142.7,60.2-151.5-95.9,131.9,78.7-142.7-111.7,118.8,95.9-131.9-125.6,104,111.7-118.8-137.7,87.4,125.8-103.8-147.6,69.4,137.7-87.2-155.1,50.4,147.6-69.4-160.2,30.5,155.1-50.2-162.8,10.2,160.2-30.5-162.8-10.2,162.8-10.2-160.2-30.5,162.8,10.4-155.1-50.4,160.2,30.6-147.6-69.4,155.1,50.4-137.7-87.2,147.6,69.4-125.8-103.8,137.7,87.2-111.7-118.7,125.6,103.8-95.9-131.7,111.7,118.8L192.5,50.3l95.9,131.9L228.3,30.6l78.5,142.9L266.3,15.7l60,151.5L305.7,5.6l40.5,157.7V.5l20.4,161.6Z"/>
      </g>
    </mask>
    <mask id="mask-2" x="40.7" y="-.5" width="651" height="650" maskUnits="userSpaceOnUse">
      <g id="path-1-outside-1_341_6181" data-name="path-1-outside-1_341_618">
        <rect class="st2" x="40.7" y="-.5" width="651" height="650"/>
        <path d="M366.6,162.1L387.1.5l-.2,162.8L427.4,5.6l-20.4,161.6L467,15.7l-40.5,157.9L505,30.6l-60.2,151.5,95.9-131.9-78.7,142.9,111.6-118.8-95.8,131.7,125.6-103.8-111.7,118.7,137.7-87.2-125.8,103.8,147.6-69.4-137.7,87.2,155.1-50.4-147.6,69.4,160.2-30.6-155.1,50.4,162.8-10.4-160.2,30.5,162.8,10.2-162.8,10.2,160.2,30.5-162.8-10.2,155.1,50.2-160.2-30.5,147.6,69.4-155.1-50.4,137.7,87.2-147.6-69.4,125.8,103.8-137.7-87.4,111.7,118.8-125.6-104,95.8,131.9-111.6-118.8,78.7,142.7-95.9-131.9,60.2,151.5-78.5-142.7,40.5,157.7-60-151.5,20.4,161.7-40.5-157.9.2,163-20.4-161.7-20.4,161.7v-163l-40.5,157.9,20.6-161.7-60,151.5,40.5-157.7-78.5,142.7,60.2-151.5-95.9,131.9,78.7-142.7-111.7,118.8,95.9-131.9-125.6,104,111.7-118.8-137.7,87.4,125.8-103.8-147.6,69.4,137.7-87.2-155.1,50.4,147.6-69.4-160.2,30.5,155.1-50.2-162.8,10.2,160.2-30.5-162.8-10.2,162.8-10.2-160.2-30.5,162.8,10.4-155.1-50.4,160.2,30.6-147.6-69.4,155.1,50.4-137.7-87.2,147.6,69.4-125.8-103.8,137.7,87.2-111.7-118.7,125.6,103.8-95.9-131.7,111.7,118.8L192.5,50.3l95.9,131.9L228.3,30.6l78.5,142.9L266.3,15.7l60,151.5L305.7,5.6l40.5,157.7V.5l20.4,161.6Z"/>
      </g>
    </mask>
    <mask id="mask-1" x="-785.7" y="-37.6" width="1477.4" height="702.9" maskUnits="userSpaceOnUse">
      <g id="mask0_341_6181" data-name="mask0_341_618">
        <g class="st4">
          <path class="st5" d="M366.6,162.1L387.1.5l-.2,162.8L427.4,5.6l-20.4,161.6L467,15.7l-40.5,157.9L505,30.6l-60.2,151.5,95.9-131.9-78.7,142.9,111.6-118.8-95.8,131.7,125.6-103.8-111.7,118.7,137.7-87.2-125.8,103.8,147.6-69.4-137.7,87.2,155.1-50.4-147.6,69.4,160.2-30.6-155.1,50.4,162.8-10.4-160.2,30.5,162.8,10.2-162.8,10.2,160.2,30.5-162.8-10.2,155.1,50.2-160.2-30.5,147.6,69.4-155.1-50.4,137.7,87.2-147.6-69.4,125.8,103.8-137.7-87.4,111.7,118.8-125.6-104,95.8,131.9-111.6-118.8,78.7,142.7-95.9-131.9,60.2,151.5-78.5-142.7,40.5,157.7-60-151.5,20.4,161.7-40.5-157.9.2,163-20.4-161.7-20.4,161.7v-163l-40.5,157.9,20.6-161.7-60,151.5,40.5-157.7-78.5,142.7,60.2-151.5-95.9,131.9,78.7-142.7-111.7,118.8,95.9-131.9-125.6,104,111.7-118.8-137.7,87.4,125.8-103.8-147.6,69.4,137.7-87.2-155.1,50.4,147.6-69.4-160.2,30.5,155.1-50.2-162.8,10.2,160.2-30.5-162.8-10.2,162.8-10.2-160.2-30.5,162.8,10.4-155.1-50.4,160.2,30.6-147.6-69.4,155.1,50.4-137.7-87.2,147.6,69.4-125.8-103.8,137.7,87.2-111.7-118.7,125.6,103.8-95.9-131.7,111.7,118.8L192.5,50.3l95.9,131.9L228.3,30.6l78.5,142.9L266.3,15.7l60,151.5L305.7,5.6l40.5,157.7V.5l20.4,161.6Z"/>
        </g>
      </g>
    </mask>
  </defs>
  <g id="mask0_341_618">
    <g class="st3">
      <path class="st5" d="M366.6,162.1L387.1.5l-.2,162.8L427.4,5.6l-20.4,161.6L467,15.7l-40.5,157.9L505,30.6l-60.2,151.5,95.9-131.9-78.7,142.9,111.6-118.8-95.8,131.7,125.6-103.8-111.7,118.7,137.7-87.2-125.8,103.8,147.6-69.4-137.7,87.2,155.1-50.4-147.6,69.4,160.2-30.6-155.1,50.4,162.8-10.4-160.2,30.5,162.8,10.2-162.8,10.2,160.2,30.5-162.8-10.2,155.1,50.2-160.2-30.5,147.6,69.4-155.1-50.4,137.7,87.2-147.6-69.4,125.8,103.8-137.7-87.4,111.7,118.8-125.6-104,95.8,131.9-111.6-118.8,78.7,142.7-95.9-131.9,60.2,151.5-78.5-142.7,40.5,157.7-60-151.5,20.4,161.7-40.5-157.9.2,163-20.4-161.7-20.4,161.7v-163l-40.5,157.9,20.6-161.7-60,151.5,40.5-157.7-78.5,142.7,60.2-151.5-95.9,131.9,78.7-142.7-111.7,118.8,95.9-131.9-125.6,104,111.7-118.8-137.7,87.4,125.8-103.8-147.6,69.4,137.7-87.2-155.1,50.4,147.6-69.4-160.2,30.5,155.1-50.2-162.8,10.2,160.2-30.5-162.8-10.2,162.8-10.2-160.2-30.5,162.8,10.4-155.1-50.4,160.2,30.6-147.6-69.4,155.1,50.4-137.7-87.2,147.6,69.4-125.8-103.8,137.7,87.2-111.7-118.7,125.6,103.8-95.9-131.7,111.7,118.8L192.5,50.3l95.9,131.9L228.3,30.6l78.5,142.9L266.3,15.7l60,151.5L305.7,5.6l40.5,157.7V.5l20.4,161.6Z"/>
    </g>
  </g>
  <g class="st0">
    <path d="M367.1,517.5V7.4c0-24.9-20.1-45-45-45H-740.7c-24.9,0-45,20.1-45,45v612.9c0,24.9,20.1,45,45,45H322.1c24.9,0,45-20.1,45-45v-93.5c-.6-3-.4-6.1,0-9.2Z"/>
  </g>
  <path class="st1" d="M95.7,470.6l45.7,24.9-45.7,25.1-25,45.6-25-45.6L0,495.5l45.7-24.9,25-45.8,25,45.8Z"/>
  <path class="st6" d="M217.1,244.1l81.7,44.5-81.7,44.9-44.7,81.5-44.7-81.5-81.7-44.9,81.7-44.5,44.7-81.9,44.7,81.9Z"/>
</svg>